<mxfile host="Electron" modified="2024-07-10T20:54:01.943Z" agent="Mozilla/5.0 (Macintosh; Intel Mac OS X 10_15_7) AppleWebKit/537.36 (KHTML, like Gecko) draw.io/24.6.4 Chrome/124.0.6367.207 Electron/30.0.6 Safari/537.36" etag="6vpajVUXJX5RCkNW3l99" version="24.6.4" type="device">
  <diagram id="C5RBs43oDa-KdzZeNtuy" name="Page-1">
    <mxGraphModel dx="474" dy="824" grid="1" gridSize="10" guides="1" tooltips="1" connect="1" arrows="1" fold="1" page="1" pageScale="1" pageWidth="827" pageHeight="1169" math="0" shadow="0">
      <root>
        <mxCell id="WIyWlLk6GJQsqaUBKTNV-0" />
        <mxCell id="WIyWlLk6GJQsqaUBKTNV-1" parent="WIyWlLk6GJQsqaUBKTNV-0" />
        <mxCell id="021GGXpsnGp4y9tTS5WN-26" style="edgeStyle=orthogonalEdgeStyle;rounded=0;orthogonalLoop=1;jettySize=auto;html=1;entryX=0.5;entryY=0;entryDx=0;entryDy=0;" edge="1" parent="WIyWlLk6GJQsqaUBKTNV-1" source="WIyWlLk6GJQsqaUBKTNV-3" target="WIyWlLk6GJQsqaUBKTNV-10">
          <mxGeometry relative="1" as="geometry" />
        </mxCell>
        <mxCell id="WIyWlLk6GJQsqaUBKTNV-3" value="Filter OSM" style="rounded=1;whiteSpace=wrap;html=1;fontSize=12;glass=0;strokeWidth=1;shadow=0;" parent="WIyWlLk6GJQsqaUBKTNV-1" vertex="1">
          <mxGeometry x="190" y="210" width="120" height="40" as="geometry" />
        </mxCell>
        <mxCell id="021GGXpsnGp4y9tTS5WN-24" value="No" style="edgeStyle=orthogonalEdgeStyle;rounded=0;orthogonalLoop=1;jettySize=auto;html=1;" edge="1" parent="WIyWlLk6GJQsqaUBKTNV-1" source="WIyWlLk6GJQsqaUBKTNV-10" target="WIyWlLk6GJQsqaUBKTNV-12">
          <mxGeometry relative="1" as="geometry" />
        </mxCell>
        <mxCell id="021GGXpsnGp4y9tTS5WN-25" value="Yes" style="edgeStyle=orthogonalEdgeStyle;rounded=0;orthogonalLoop=1;jettySize=auto;html=1;" edge="1" parent="WIyWlLk6GJQsqaUBKTNV-1" source="WIyWlLk6GJQsqaUBKTNV-10" target="WIyWlLk6GJQsqaUBKTNV-11">
          <mxGeometry relative="1" as="geometry" />
        </mxCell>
        <mxCell id="WIyWlLk6GJQsqaUBKTNV-10" value="High Resolution?" style="rhombus;whiteSpace=wrap;html=1;shadow=0;fontFamily=Helvetica;fontSize=12;align=center;strokeWidth=1;spacing=6;spacingTop=-4;" parent="WIyWlLk6GJQsqaUBKTNV-1" vertex="1">
          <mxGeometry x="200" y="269" width="100" height="80" as="geometry" />
        </mxCell>
        <mxCell id="021GGXpsnGp4y9tTS5WN-1" style="edgeStyle=orthogonalEdgeStyle;rounded=0;orthogonalLoop=1;jettySize=auto;html=1;" edge="1" parent="WIyWlLk6GJQsqaUBKTNV-1" source="WIyWlLk6GJQsqaUBKTNV-11" target="021GGXpsnGp4y9tTS5WN-0">
          <mxGeometry relative="1" as="geometry" />
        </mxCell>
        <mxCell id="WIyWlLk6GJQsqaUBKTNV-11" value="Buffer OSM Network Links" style="rounded=1;whiteSpace=wrap;html=1;fontSize=12;glass=0;strokeWidth=1;shadow=0;" parent="WIyWlLk6GJQsqaUBKTNV-1" vertex="1">
          <mxGeometry x="190" y="370" width="120" height="40" as="geometry" />
        </mxCell>
        <mxCell id="021GGXpsnGp4y9tTS5WN-2" style="edgeStyle=orthogonalEdgeStyle;rounded=0;orthogonalLoop=1;jettySize=auto;html=1;" edge="1" parent="WIyWlLk6GJQsqaUBKTNV-1" source="WIyWlLk6GJQsqaUBKTNV-12" target="021GGXpsnGp4y9tTS5WN-0">
          <mxGeometry relative="1" as="geometry" />
        </mxCell>
        <mxCell id="WIyWlLk6GJQsqaUBKTNV-12" value="Buffer OSM Full&lt;div&gt;Links&lt;/div&gt;" style="rounded=1;whiteSpace=wrap;html=1;fontSize=12;glass=0;strokeWidth=1;shadow=0;" parent="WIyWlLk6GJQsqaUBKTNV-1" vertex="1">
          <mxGeometry x="340" y="370" width="120" height="40" as="geometry" />
        </mxCell>
        <mxCell id="021GGXpsnGp4y9tTS5WN-4" value="" style="edgeStyle=orthogonalEdgeStyle;rounded=0;orthogonalLoop=1;jettySize=auto;html=1;" edge="1" parent="WIyWlLk6GJQsqaUBKTNV-1" source="021GGXpsnGp4y9tTS5WN-0" target="021GGXpsnGp4y9tTS5WN-3">
          <mxGeometry relative="1" as="geometry" />
        </mxCell>
        <mxCell id="021GGXpsnGp4y9tTS5WN-0" value="Intersect with Added Features" style="rounded=1;whiteSpace=wrap;html=1;fontSize=12;glass=0;strokeWidth=1;shadow=0;" vertex="1" parent="WIyWlLk6GJQsqaUBKTNV-1">
          <mxGeometry x="260" y="446" width="120" height="40" as="geometry" />
        </mxCell>
        <mxCell id="021GGXpsnGp4y9tTS5WN-6" value="Yes" style="edgeStyle=orthogonalEdgeStyle;rounded=0;orthogonalLoop=1;jettySize=auto;html=1;" edge="1" parent="WIyWlLk6GJQsqaUBKTNV-1" source="021GGXpsnGp4y9tTS5WN-3" target="021GGXpsnGp4y9tTS5WN-12">
          <mxGeometry relative="1" as="geometry">
            <mxPoint x="320" y="626" as="targetPoint" />
          </mxGeometry>
        </mxCell>
        <mxCell id="021GGXpsnGp4y9tTS5WN-9" value="No" style="edgeStyle=orthogonalEdgeStyle;rounded=0;orthogonalLoop=1;jettySize=auto;html=1;entryX=1;entryY=0.5;entryDx=0;entryDy=0;" edge="1" parent="WIyWlLk6GJQsqaUBKTNV-1" source="021GGXpsnGp4y9tTS5WN-3" target="021GGXpsnGp4y9tTS5WN-11">
          <mxGeometry relative="1" as="geometry">
            <mxPoint x="420" y="786" as="targetPoint" />
            <Array as="points">
              <mxPoint x="410" y="546" />
              <mxPoint x="410" y="746" />
            </Array>
          </mxGeometry>
        </mxCell>
        <mxCell id="021GGXpsnGp4y9tTS5WN-3" value="Street Name Field?" style="rhombus;whiteSpace=wrap;html=1;shadow=0;fontFamily=Helvetica;fontSize=12;align=center;strokeWidth=1;spacing=6;spacingTop=-4;" vertex="1" parent="WIyWlLk6GJQsqaUBKTNV-1">
          <mxGeometry x="270" y="506" width="100" height="80" as="geometry" />
        </mxCell>
        <mxCell id="021GGXpsnGp4y9tTS5WN-22" value="" style="edgeStyle=orthogonalEdgeStyle;rounded=0;orthogonalLoop=1;jettySize=auto;html=1;" edge="1" parent="WIyWlLk6GJQsqaUBKTNV-1" source="021GGXpsnGp4y9tTS5WN-11" target="021GGXpsnGp4y9tTS5WN-19">
          <mxGeometry relative="1" as="geometry" />
        </mxCell>
        <mxCell id="021GGXpsnGp4y9tTS5WN-11" value="Calculate Hausdorff Distance" style="rounded=1;whiteSpace=wrap;html=1;fontSize=12;glass=0;strokeWidth=1;shadow=0;" vertex="1" parent="WIyWlLk6GJQsqaUBKTNV-1">
          <mxGeometry x="260" y="727" width="120" height="40" as="geometry" />
        </mxCell>
        <mxCell id="021GGXpsnGp4y9tTS5WN-14" value="" style="edgeStyle=orthogonalEdgeStyle;rounded=0;orthogonalLoop=1;jettySize=auto;html=1;" edge="1" parent="WIyWlLk6GJQsqaUBKTNV-1" source="021GGXpsnGp4y9tTS5WN-12" target="021GGXpsnGp4y9tTS5WN-13">
          <mxGeometry relative="1" as="geometry" />
        </mxCell>
        <mxCell id="021GGXpsnGp4y9tTS5WN-17" value="No" style="edgeLabel;html=1;align=center;verticalAlign=middle;resizable=0;points=[];" vertex="1" connectable="0" parent="021GGXpsnGp4y9tTS5WN-14">
          <mxGeometry x="-0.2" y="1" relative="1" as="geometry">
            <mxPoint as="offset" />
          </mxGeometry>
        </mxCell>
        <mxCell id="021GGXpsnGp4y9tTS5WN-15" value="" style="edgeStyle=orthogonalEdgeStyle;rounded=0;orthogonalLoop=1;jettySize=auto;html=1;" edge="1" parent="WIyWlLk6GJQsqaUBKTNV-1" source="021GGXpsnGp4y9tTS5WN-12" target="021GGXpsnGp4y9tTS5WN-11">
          <mxGeometry relative="1" as="geometry" />
        </mxCell>
        <mxCell id="021GGXpsnGp4y9tTS5WN-16" value="Yes" style="edgeLabel;html=1;align=center;verticalAlign=middle;resizable=0;points=[];" vertex="1" connectable="0" parent="021GGXpsnGp4y9tTS5WN-15">
          <mxGeometry x="-0.35" y="1" relative="1" as="geometry">
            <mxPoint as="offset" />
          </mxGeometry>
        </mxCell>
        <mxCell id="021GGXpsnGp4y9tTS5WN-12" value="Street Name Matches?" style="rhombus;whiteSpace=wrap;html=1;shadow=0;fontFamily=Helvetica;fontSize=12;align=center;strokeWidth=1;spacing=6;spacingTop=-4;" vertex="1" parent="WIyWlLk6GJQsqaUBKTNV-1">
          <mxGeometry x="270" y="613" width="100" height="80" as="geometry" />
        </mxCell>
        <mxCell id="021GGXpsnGp4y9tTS5WN-13" value="Remove Match" style="ellipse;whiteSpace=wrap;html=1;shadow=0;strokeWidth=1;spacing=6;spacingTop=-4;" vertex="1" parent="WIyWlLk6GJQsqaUBKTNV-1">
          <mxGeometry x="154" y="613" width="80" height="80" as="geometry" />
        </mxCell>
        <mxCell id="021GGXpsnGp4y9tTS5WN-21" value="No" style="edgeStyle=orthogonalEdgeStyle;rounded=0;orthogonalLoop=1;jettySize=auto;html=1;" edge="1" parent="WIyWlLk6GJQsqaUBKTNV-1" source="021GGXpsnGp4y9tTS5WN-19" target="021GGXpsnGp4y9tTS5WN-20">
          <mxGeometry relative="1" as="geometry" />
        </mxCell>
        <mxCell id="021GGXpsnGp4y9tTS5WN-30" value="Yes" style="edgeStyle=orthogonalEdgeStyle;rounded=0;orthogonalLoop=1;jettySize=auto;html=1;" edge="1" parent="WIyWlLk6GJQsqaUBKTNV-1" source="021GGXpsnGp4y9tTS5WN-19" target="021GGXpsnGp4y9tTS5WN-29">
          <mxGeometry relative="1" as="geometry" />
        </mxCell>
        <mxCell id="021GGXpsnGp4y9tTS5WN-19" value="Min Hausdorff Distance?" style="rhombus;whiteSpace=wrap;html=1;shadow=0;fontFamily=Helvetica;fontSize=12;align=center;strokeWidth=1;spacing=6;spacingTop=-4;" vertex="1" parent="WIyWlLk6GJQsqaUBKTNV-1">
          <mxGeometry x="270" y="797" width="100" height="80" as="geometry" />
        </mxCell>
        <mxCell id="021GGXpsnGp4y9tTS5WN-20" value="Remove Match" style="ellipse;whiteSpace=wrap;html=1;shadow=0;strokeWidth=1;spacing=6;spacingTop=-4;" vertex="1" parent="WIyWlLk6GJQsqaUBKTNV-1">
          <mxGeometry x="154" y="797" width="80" height="80" as="geometry" />
        </mxCell>
        <mxCell id="021GGXpsnGp4y9tTS5WN-27" value="Accept Match" style="ellipse;whiteSpace=wrap;html=1;shadow=0;strokeWidth=1;spacing=6;spacingTop=-4;" vertex="1" parent="WIyWlLk6GJQsqaUBKTNV-1">
          <mxGeometry x="560" y="797" width="80" height="80" as="geometry" />
        </mxCell>
        <mxCell id="021GGXpsnGp4y9tTS5WN-32" value="Yes" style="edgeStyle=orthogonalEdgeStyle;rounded=0;orthogonalLoop=1;jettySize=auto;html=1;" edge="1" parent="WIyWlLk6GJQsqaUBKTNV-1" source="021GGXpsnGp4y9tTS5WN-29" target="021GGXpsnGp4y9tTS5WN-27">
          <mxGeometry relative="1" as="geometry" />
        </mxCell>
        <mxCell id="021GGXpsnGp4y9tTS5WN-33" value="No" style="edgeStyle=orthogonalEdgeStyle;rounded=0;orthogonalLoop=1;jettySize=auto;html=1;" edge="1" parent="WIyWlLk6GJQsqaUBKTNV-1" source="021GGXpsnGp4y9tTS5WN-29" target="021GGXpsnGp4y9tTS5WN-20">
          <mxGeometry relative="1" as="geometry">
            <Array as="points">
              <mxPoint x="460" y="890" />
              <mxPoint x="194" y="890" />
            </Array>
          </mxGeometry>
        </mxCell>
        <mxCell id="021GGXpsnGp4y9tTS5WN-29" value="Hausdorff Distance&lt;div&gt;&amp;lt; 1,500 feet&lt;/div&gt;" style="rhombus;whiteSpace=wrap;html=1;shadow=0;fontFamily=Helvetica;fontSize=12;align=center;strokeWidth=1;spacing=6;spacingTop=-4;" vertex="1" parent="WIyWlLk6GJQsqaUBKTNV-1">
          <mxGeometry x="410" y="797" width="100" height="80" as="geometry" />
        </mxCell>
      </root>
    </mxGraphModel>
  </diagram>
</mxfile>
